<?xml version="1.0" encoding="utf-8"?>
<!-- Generator: Adobe Illustrator 22.0.1, SVG Export Plug-In . SVG Version: 6.00 Build 0)  -->
<svg version="1.1" id="Layer_1" xmlns="http://www.w3.org/2000/svg" xmlns:xlink="http://www.w3.org/1999/xlink" x="0px" y="0px"
	 viewBox="0 0 512 512" style="enable-background:new 0 0 512 512;" xml:space="preserve">
<style type="text/css">
	.st0{fill:url(#SVGID_1_);}
	.st1{fill:#FFFFFF;}
	.st2{fill:url(#SVGID_2_);}
</style>
<g>
	<linearGradient id="SVGID_1_" gradientUnits="userSpaceOnUse" x1="19.3497" y1="237.1261" x2="492.6503" y2="237.1261">
		<stop  offset="0" style="stop-color:#F26436"/>
		<stop  offset="0.4894" style="stop-color:#F26436"/>
		<stop  offset="0.9995" style="stop-color:#EF404F"/>
	</linearGradient>
	<path class="st0" d="M492.7,465.2c0,0-108.8-59-114.4-119.9c30.5-35.6,49-81.9,49-132.5c0-112.6-91.3-204-204-204
		c-112.6,0-203.9,91.3-203.9,204c0,112.6,91.3,204,203.9,204c16.6,0,32.6-2,48-5.7C306.9,435.1,377.6,468.8,492.7,465.2z"/>
	<path class="st1" d="M96.3,220.4c0.2-17.6,3.8-34.1,10.8-49.5c7-15.4,16.3-28.9,28.1-40.5c11.7-11.5,25.4-20.6,41.1-27.3
		c15.6-6.7,32.4-10,50.1-10c17.8,0,34.5,3.4,50.3,10.2c15.8,6.8,29.6,16,41.4,27.8c11.9,11.7,21.2,25.5,28.1,41.2
		c6.9,15.8,10.3,32.5,10.3,50.3c0,17.3-3.4,33.6-10.1,48.7c-6.8,15.1-15.9,28.4-27.5,39.8c-11.5,11.4-25,20.5-40.5,27.3
		c-15.4,6.8-31.7,10.5-48.9,11.1V360c0,5.5-1,10.7-2.8,15.7c-1.9,5-4.6,9.3-8.1,12.9c-3.5,3.6-7.6,6.5-12.2,8.6
		c-4.7,2.1-9.7,3.2-15.2,3.2c-5.7,0-11-1.1-15.9-3.2c-4.9-2.1-9.2-5-12.9-8.6c-3.7-3.6-6.6-7.9-8.6-12.9c-2-4.9-3-10.2-3-15.7v-49.5
		c0-5.5,1.1-10.6,3.2-15.4c2.1-4.8,5-8.9,8.6-12.5c3.6-3.6,7.9-6.5,12.8-8.6c5-2.1,10.2-3.2,15.7-3.2h35.2c6.5,0,13-1.3,19.2-3.8
		c6.2-2.5,11.7-6,16.5-10.3c4.8-4.3,8.6-9.4,11.4-15.2c2.8-5.8,4.3-12.1,4.3-18.9c0-6.6-1.2-12.8-3.5-18.9
		c-2.3-6-5.7-11.4-10.2-16.2c-4.4-4.8-9.8-8.6-16.2-11.4c-6.3-2.9-13.4-4.3-21.2-4.3c-6.8,0-13.2,1.2-19.4,3.6
		c-6.1,2.4-11.6,5.8-16.3,10.2c-4.8,4.3-8.6,9.5-11.4,15.5c-2.8,6-4.4,12.6-4.6,19.8v1.6c0,5.5-1,10.7-2.8,15.7
		c-1.9,5-4.5,9.3-7.8,13c-3.3,3.7-7.2,6.6-11.9,8.7c-4.7,2.1-9.7,3.2-15.2,3.2c-5.7,0-11.1-1.1-16-3.2c-5-2.1-9.3-5-13-8.7
		c-3.7-3.7-6.6-8-8.7-13c-2.1-5-3.2-10.2-3.2-15.7V220.4z"/>
	<linearGradient id="SVGID_2_" gradientUnits="userSpaceOnUse" x1="149.2578" y1="464.3829" x2="231.4462" y2="464.3829">
		<stop  offset="0" style="stop-color:#F26436"/>
		<stop  offset="0.4894" style="stop-color:#F26436"/>
		<stop  offset="0.9995" style="stop-color:#EF404F"/>
	</linearGradient>
	<path class="st2" d="M152.4,448.5c2.1-5.1,5.1-9.5,8.9-13.2c3.8-3.7,8.2-6.7,13.2-8.9c5-2.2,10.3-3.3,16-3.3
		c5.5,0,10.7,1.1,15.7,3.3c5,2.2,9.3,5.2,13,8.9c3.7,3.7,6.7,8.1,8.9,13.2c2.2,5.1,3.3,10.5,3.3,16.2c0,5.5-1.1,10.7-3.3,15.7
		c-2.2,5-5.2,9.3-8.9,13c-3.7,3.7-8.1,6.7-13,8.9c-5,2.2-10.2,3.3-15.7,3.3c-5.7,0-11-1.1-16-3.3c-5-2.2-9.4-5.2-13.2-8.9
		c-3.8-3.7-6.8-8-8.9-13c-2.1-5-3.2-10.2-3.2-15.7C149.3,459,150.3,453.6,152.4,448.5z"/>
</g>
</svg>
