<svg version="1.2" baseProfile="tiny-ps" xmlns="http://www.w3.org/2000/svg" viewBox="0 0 1420 780" width="1420" height="780">
	<title>Group 2246-svg</title>
	<defs>
		<linearGradient id="grd1" gradientUnits="userSpaceOnUse"  x1="1537.5" y1="-305" x2="607" y2="1064">
			<stop offset="0" stop-color="#f95fef"  />
			<stop offset="1" stop-color="#5b93ff"  />
		</linearGradient>
		<linearGradient id="grd2" gradientUnits="userSpaceOnUse"  x1="-110.5" y1="-178.5" x2="1530.5" y2="1007.5">
			<stop offset="0" stop-color="#ff8f6b"  />
			<stop offset="1" stop-color="#ffd66b"  />
		</linearGradient>
		<filter x="-50%" y="-50%" width="200%" height="200%" id="flt1"> <feGaussianBlur stdDeviation="40" /> </filter>
		<filter x="-50%" y="-50%" width="200%" height="200%" id="flt2"> <feGaussianBlur stdDeviation="3.058" /> </filter>
	</defs>
	<style>
		tspan { white-space:pre }
		.shp0 { opacity: 0.6;fill: url(#grd1) } 
		.shp1 { opacity: 0.6;fill: url(#grd2) } 
		.shp2 { opacity: 0.302;fill: #ffffff } 
		.shp3 { filter: url(#flt1);fill: #605bff } 
		.shp4 { opacity: 0.502;fill: #ffffff } 
		.shp5 { fill: none;stroke: #ffffff;stroke-width: 2 } 
		.shp6 { filter: url(#flt2);fill: #ffffff } 
		.shp7 { fill: none;stroke: #ffffff;stroke-opacity:0.3;stroke-width: 3 } 
		.shp8 { opacity: 0.4;fill: #ffffff } 
		.shp9 { fill: none;stroke: #ffffff } 
		.shp10 { fill: none;stroke: #ffffff;stroke-opacity:0.5 } 
		.shp11 { opacity: 0.102;fill: #ffffff } 
		.shp12 { fill: none;stroke: #ffffff;stroke-opacity:0.2 } 
	</style>
	<path id="Layer" class="shp0" d="M1915 472C1915 891.74 1574.74 1232 1155 1232C735.26 1232 395 891.74 395 472C395 52.26 735.26 -288 1155 -288C1574.74 -288 1915 52.26 1915 472Z" />
	<path id="Layer" class="shp1" d="M860 -0.5C860 421.45 785.5 28.5 611.5 1166C37.5 1186 -613 794.95 -613 373C-613 -48.94 -270.95 -391 151 -391C572.95 -391 958 -513.5 860 -0.5Z" />
	<g id="Layer">
		<path id="Layer" class="shp2" d="M-90 -200L1510 -200L1510 1000L-90 1000L-90 -200Z" />
	</g>
	<g id="Layer" style="opacity: 0.2">
		<path id="Layer" class="shp3" d="M701 944C388 944 135 901.76 135 849.5C135 797.24 388 755 701 755C1014 755 1267 797.24 1267 849.5C1267 901.76 1014 944 701 944Z" />
	</g>
	<g id="Layer">
		<path id="Layer" class="shp4" d="M-54 -16C-54 -32.57 -39.66 -46 -21.97 -46L1459.97 -46C1477.66 -46 1492 -32.57 1492 -16L1492 824C1492 840.57 1477.66 854 1459.97 854L-21.97 854C-39.66 854 -54 840.57 -54 824L-54 -16Z" />
		<path id="Layer" class="shp5" d="M-10 -16C-10 -32.02 3.4 -45 19.92 -45L1452.08 -45C1468.6 -45 1482 -32.02 1482 -16L1482 824C1482 840.02 1468.6 853 1452.08 853L19.92 853C3.4 853 -10 840.02 -10 824L-10 -16Z" />
	</g>
	<g id="Layer" style="opacity: 0.4">
		<path id="Layer" class="shp6" d="M1016.97 279.12C1019.98 327.6 1002.11 373.83 966.64 409.31C922.88 453.06 864.76 460.79 813.72 455.91C809.03 433.67 802.97 413.95 797.49 398.51C840.75 406.32 893.09 405.57 927.99 370.67C977.25 321.4 973.19 245.83 918.33 190.97C863.47 136.11 787.9 132.05 738.63 181.31C668.21 251.73 733.46 386.15 734.11 387.46L734.29 387.83C737.65 394.84 815.46 560.49 719.31 656.63C683.83 692.11 637.6 709.99 589.12 706.98C543.2 704.12 498.16 682.81 462.33 646.97C426.49 611.14 405.18 566.11 402.33 520.18C399.31 471.7 417.19 425.47 452.67 389.99C496.77 345.88 554.1 337.69 604.53 342.37C609.25 364.58 615.38 384.26 621.04 399.86C578.32 392.12 526.73 393.22 491.31 428.63C442.05 477.9 446.11 553.47 500.97 608.33C555.83 663.19 631.4 667.25 680.67 617.99C748.63 550.02 687.08 415.91 685.06 411.57C680.06 401.43 602.75 239.9 699.99 142.67C735.47 107.19 781.7 89.31 830.18 92.33C876.11 95.18 921.14 116.49 956.97 152.33C992.81 188.16 1014.12 233.2 1016.97 279.12Z" />
	</g>
	<g id="Layer">
		<path id="Layer" class="shp7" d="M-7.5 -14C-7.5 -29.74 5.26 -42.5 21 -42.5L1405 -42.5C1420.74 -42.5 1433.5 -29.74 1433.5 -14L1433.5 822C1433.5 837.74 1420.74 850.5 1405 850.5L21 850.5C5.26 850.5 -7.5 837.74 -7.5 822L-7.5 -14Z" />
	</g>
	<g id="Layer">
		<path id="Layer" class="shp8" d="M960 67C938.43 67 921 49.57 921 28C921 6.43 938.43 -11 960 -11C981.57 -11 999 6.43 999 28C999 49.57 981.57 67 960 67Z" />
		<path id="Layer" class="shp9" d="M960 34.5C938.71 34.5 921.5 17.29 921.5 -4C921.5 -25.29 938.71 -42.5 960 -42.5C981.29 -42.5 998.5 -25.29 998.5 -4C998.5 17.29 981.29 34.5 960 34.5Z" />
	</g>
	<g id="Layer">
		<path id="Layer" class="shp10" d="M1010 -4C1010 3.43 1008.35 10.76 1005.16 17.47C1001.97 24.18 997.32 30.09 991.56 34.78C985.8 39.47 979.07 42.81 971.85 44.57C964.64 46.34 957.12 46.47 949.85 44.96C942.58 43.45 935.73 40.34 929.81 35.86C923.89 31.37 919.04 25.63 915.62 19.03C912.2 12.44 910.29 5.17 910.03 -2.25C909.77 -9.68 911.17 -17.06 914.12 -23.88" />
	</g>
	<g id="Layer">
		<path id="Layer" class="shp4" d="M18.5 586C3.85 586 -8 574.15 -8 559.5C-8 544.85 3.85 533 18.5 533C33.15 533 45 544.85 45 559.5C45 574.15 33.15 586 18.5 586Z" />
		<path id="Layer" class="shp9" d="M18.5 585.5C4.12 585.5 -7.5 573.88 -7.5 559.5C-7.5 545.12 4.12 533.5 18.5 533.5C32.88 533.5 44.5 545.12 44.5 559.5C44.5 573.88 32.88 585.5 18.5 585.5Z" />
	</g>
	<path id="Layer" class="shp11" d="M18.5 594C-0.58 594 -16 578.58 -16 559.5C-16 540.42 -0.58 525 18.5 525C37.58 525 53 540.42 53 559.5C53 578.58 37.58 594 18.5 594Z" />
	<path id="Layer" class="shp12" d="M18.5 593.5C-0.3 593.5 -15.5 578.3 -15.5 559.5C-15.5 540.7 -0.3 525.5 18.5 525.5C37.3 525.5 52.5 540.7 52.5 559.5C52.5 578.3 37.3 593.5 18.5 593.5Z" />
	<g id="Layer">
		<path id="Layer" class="shp4" d="M1383.5 783C1374.93 783 1368 776.07 1368 767.5C1368 758.93 1374.93 752 1383.5 752C1392.07 752 1399 758.93 1399 767.5C1399 776.07 1392.07 783 1383.5 783Z" />
		<path id="Layer" class="shp9" d="M1383.5 782.5C1375.2 782.5 1368.5 775.79 1368.5 767.5C1368.5 759.21 1375.2 752.5 1383.5 752.5C1391.8 752.5 1398.5 759.21 1398.5 767.5C1398.5 775.79 1391.8 782.5 1383.5 782.5Z" />
	</g>
	<g id="Layer" style="opacity: 0.302">
		<path id="Layer" class="shp4" d="M1383.5 788C1372.16 788 1363 778.84 1363 767.5C1363 756.16 1372.16 747 1383.5 747C1394.84 747 1404 756.16 1404 767.5C1404 778.84 1394.84 788 1383.5 788Z" />
		<path id="Layer" class="shp12" d="M1383.5 787.5C1372.44 787.5 1363.5 778.56 1363.5 767.5C1363.5 756.44 1372.44 747.5 1383.5 747.5C1394.56 747.5 1403.5 756.44 1403.5 767.5C1403.5 778.56 1394.56 787.5 1383.5 787.5Z" />
	</g>
</svg>