<svg version="1.2" baseProfile="tiny-ps" xmlns="http://www.w3.org/2000/svg" viewBox="0 0 375 2400" width="375" height="2400">
	<title>Group 2243-svg</title>
	<defs>
		<linearGradient id="grd1" gradientUnits="userSpaceOnUse"  x1="375.03" y1="-202.332" x2="-230.299" y2="-96.59">
			<stop offset="0" stop-color="#f95fef"  />
			<stop offset="1" stop-color="#5b93ff"  />
		</linearGradient>
		<linearGradient id="grd2" gradientUnits="userSpaceOnUse"  x1="25.346" y1="286.424" x2="549.672" y2="334.297">
			<stop offset="0" stop-color="#ff8f6b"  />
			<stop offset="1" stop-color="#ffd66b"  />
		</linearGradient>
		<filter x="-50%" y="-50%" width="200%" height="200%" id="flt1"> <feGaussianBlur stdDeviation="40" /> </filter>
		<filter x="-50%" y="-50%" width="200%" height="200%" id="flt2"> <feGaussianBlur stdDeviation="4" /> </filter>
	</defs>
	<style>
		tspan { white-space:pre }
		.shp0 { opacity: 0.6;fill: url(#grd1) } 
		.shp1 { opacity: 0.6;fill: url(#grd2) } 
		.shp2 { opacity: 0.302;fill: #ffffff } 
		.shp3 { filter: url(#flt1);fill: #605bff } 
		.shp4 { opacity: 0.502;fill: #ffffff } 
		.shp5 { fill: none;stroke: #ffffff;stroke-width: 2 } 
		.shp6 { fill: none;stroke: #ffffff;stroke-opacity:0.3;stroke-width: 3 } 
		.shp7 { opacity: 0.4;fill: #ffffff } 
		.shp8 { fill: none;stroke: #ffffff } 
		.shp9 { fill: none;stroke: #ffffff;stroke-opacity:0.5 } 
		.shp10 { opacity: 0.102;fill: #ffffff } 
		.shp11 { fill: none;stroke: #ffffff;stroke-opacity:0.2 } 
		.shp12 { filter: url(#flt2);fill: #ffffff } 
	</style>
	<path id="Layer" class="shp0" d="M455 1184C455 1932.9 382.92 2540 294 2540C205.08 2540 133 1932.9 133 1184C133 435.1 205.08 -172 294 -172C382.92 -172 455 435.1 455 1184Z" />
	<path id="Layer" class="shp1" d="M230.74 584.62C230.74 1291.47 214.97 633.2 178.15 2538.77C56.67 2572.27 -81 1917.17 -81 1210.31C-81 503.46 -8.61 -69.56 80.69 -69.56C169.99 -69.56 251.48 -274.78 230.74 584.62Z" />
	<g id="Layer">
		<path id="Layer" class="shp2" d="M-81 -91L455 -91L455 2540L-81 2540L-81 -91Z" />
	</g>
	<g id="Layer" style="opacity: 0.2">
		<path id="Layer" class="shp3" d="M201 2586C126.9 2586 67 2528.11 67 2456.5C67 2384.89 126.9 2327 201 2327C275.1 2327 335 2384.89 335 2456.5C335 2528.11 275.1 2586 201 2586Z" />
	</g>
	<g id="Layer">
		<path id="Layer" class="shp4" d="M0 0C0 -16.57 13.43 -30 30 -30L345 -30C361.57 -30 375 -16.57 375 0L375 2414C375 2430.57 361.57 2444 345 2444L30 2444C13.43 2444 0 2430.57 0 2414L0 0Z" />
		<path id="Layer" class="shp5" d="M1 0C1 -16.02 13.98 -29 30 -29L345 -29C361.02 -29 374 -16.02 374 0L374 2414C374 2430.02 361.02 2443 345 2443L30 2443C13.98 2443 1 2430.02 1 2414L1 0Z" />
	</g>
	<g id="Layer">
		<path id="Layer" class="shp6" d="M1.5 0C1.5 -15.74 14.26 -28.5 30 -28.5L345 -28.5C360.74 -28.5 373.5 -15.74 373.5 0L373.5 2414C373.5 2429.74 360.74 2442.5 345 2442.5L30 2442.5C14.26 2442.5 1.5 2429.74 1.5 2414L1.5 0Z" />
	</g>
	<g id="Layer">
		<path id="Layer" class="shp7" d="M335 -15C325.05 -15 317 -23.05 317 -33C317 -42.95 325.05 -51 335 -51C344.95 -51 353 -42.95 353 -33C353 -23.05 344.95 -15 335 -15Z" />
		<path id="Layer" class="shp8" d="M335 -15.5C325.32 -15.5 317.5 -23.32 317.5 -33C317.5 -42.68 325.32 -50.5 335 -50.5C344.68 -50.5 352.5 -42.68 352.5 -33C352.5 -23.32 344.68 -15.5 335 -15.5Z" />
	</g>
	<g id="Layer">
		<path id="Layer" class="shp9" d="M358 -32.9C358 -29.5 357.24 -26.14 355.77 -23.07C354.31 -19.99 352.17 -17.29 349.52 -15.14C346.87 -12.99 343.77 -11.46 340.45 -10.65C337.13 -9.85 333.68 -9.79 330.33 -10.48C326.99 -11.17 323.84 -12.59 321.11 -14.64C318.39 -16.7 316.16 -19.33 314.59 -22.35C313.01 -25.37 312.13 -28.7 312.01 -32.1C311.89 -35.5 312.54 -38.88 313.9 -42" />
	</g>
	<g id="Layer">
		<path id="Layer" class="shp4" d="M1.5 606C-13.15 606 -25 594.15 -25 579.5C-25 564.85 -13.15 553 1.5 553C16.15 553 28 564.85 28 579.5C28 594.15 16.15 606 1.5 606Z" />
		<path id="Layer" class="shp8" d="M1.5 605.5C-12.88 605.5 -24.5 593.88 -24.5 579.5C-24.5 565.12 -12.88 553.5 1.5 553.5C15.88 553.5 27.5 565.12 27.5 579.5C27.5 593.88 15.88 605.5 1.5 605.5Z" />
	</g>
	<path id="Layer" class="shp10" d="M1.5 614C-17.58 614 -33 598.58 -33 579.5C-33 560.42 -17.58 545 1.5 545C20.58 545 36 560.42 36 579.5C36 598.58 20.58 614 1.5 614Z" />
	<path id="Layer" class="shp11" d="M1.5 613.5C-17.3 613.5 -32.5 598.3 -32.5 579.5C-32.5 560.7 -17.3 545.5 1.5 545.5C20.3 545.5 35.5 560.7 35.5 579.5C35.5 598.3 20.3 613.5 1.5 613.5Z" />
	<g id="Layer">
		<path id="Layer" class="shp4" d="M366.5 803C357.93 803 351 796.07 351 787.5C351 778.93 357.93 772 366.5 772C375.07 772 382 778.93 382 787.5C382 796.07 375.07 803 366.5 803Z" />
		<path id="Layer" class="shp8" d="M366.5 802.5C358.2 802.5 351.5 795.79 351.5 787.5C351.5 779.21 358.2 772.5 366.5 772.5C374.8 772.5 381.5 779.21 381.5 787.5C381.5 795.79 374.8 802.5 366.5 802.5Z" />
	</g>
	<g id="Layer" style="opacity: 0.302">
		<path id="Layer" class="shp4" d="M366.5 808C355.16 808 346 798.84 346 787.5C346 776.16 355.16 767 366.5 767C377.84 767 387 776.16 387 787.5C387 798.84 377.84 808 366.5 808Z" />
		<path id="Layer" class="shp11" d="M366.5 807.5C355.44 807.5 346.5 798.56 346.5 787.5C346.5 776.44 355.44 767.5 366.5 767.5C377.56 767.5 386.5 776.44 386.5 787.5C386.5 798.56 377.56 807.5 366.5 807.5Z" />
	</g>
	<g id="Layer" style="opacity: 0.4">
		<path id="Layer" class="shp12" d="M269.38 178.4C279.27 193.32 282.09 211.37 277.3 229.24C271.4 251.26 254.27 264.44 237.08 272.29C231.48 266.06 225.91 260.88 221.32 256.96C236.57 251.48 253.13 241.59 257.84 224.02C264.49 199.22 249.27 175.84 221.64 168.44C194.02 161.04 169.15 173.67 162.51 198.48C153 233.93 198.6 264.81 199.05 265.11L199.18 265.2C201.54 266.81 256.91 305.35 243.94 353.76C239.15 371.62 227.69 385.85 211.66 393.82C196.47 401.37 178.17 402.87 160.13 398.03C142.08 393.2 126.98 382.75 117.61 368.62C107.71 353.7 104.9 335.65 109.68 317.79C115.63 295.58 132.42 282.4 149.38 274.6C154.98 280.82 160.56 285.97 165.25 289.91C150.18 295.31 133.92 305.17 129.14 323C122.49 347.8 137.72 371.18 165.34 378.58C192.96 385.98 217.83 373.35 224.48 348.55C233.65 314.32 189.29 282.86 187.84 281.85C184.38 279.53 129.93 242.22 143.05 193.26C147.84 175.4 159.3 161.17 175.33 153.2C190.51 145.65 208.81 144.15 226.86 148.99C244.9 153.82 260 164.27 269.38 178.4Z" />
	</g>
	<g id="Layer" style="opacity: 0.4">
		<path id="Layer" class="shp12" d="M269.38 616.4C279.27 631.32 282.09 649.37 277.3 667.23C271.4 689.26 254.27 702.44 237.08 710.29C231.48 704.06 225.91 698.88 221.32 694.96C236.57 689.48 253.13 679.59 257.84 662.02C264.49 637.22 249.27 613.84 221.64 606.44C194.02 599.04 169.15 611.67 162.51 636.48C153 671.93 198.6 702.81 199.05 703.11L199.18 703.2C201.54 704.81 256.91 743.35 243.94 791.76C239.15 809.62 227.69 823.85 211.66 831.82C196.47 839.37 178.17 840.87 160.13 836.03C142.08 831.2 126.98 820.75 117.61 806.62C107.71 791.7 104.9 773.65 109.68 755.78C115.63 733.58 132.42 720.4 149.38 712.6C154.98 718.82 160.56 723.97 165.25 727.9C150.18 733.31 133.92 743.17 129.14 761C122.49 785.8 137.72 809.17 165.34 816.58C192.96 823.98 217.83 811.35 224.48 786.54C233.65 752.32 189.29 720.86 187.84 719.85C184.38 717.53 129.93 680.22 143.05 631.26C147.84 613.4 159.3 599.17 175.33 591.2C190.51 583.65 208.81 582.15 226.86 586.99C244.9 591.82 260 602.27 269.38 616.4Z" />
	</g>
	<g id="Layer" style="opacity: 0.4">
		<path id="Layer" class="shp12" d="M269.38 1054.4C279.27 1069.32 282.09 1087.37 277.3 1105.23C271.4 1127.26 254.27 1140.44 237.08 1148.29C231.48 1142.06 225.91 1136.88 221.32 1132.96C236.57 1127.48 253.13 1117.59 257.84 1100.02C264.49 1075.22 249.27 1051.84 221.64 1044.44C194.02 1037.04 169.15 1049.67 162.51 1074.47C153 1109.93 198.6 1140.81 199.05 1141.11L199.18 1141.2C201.54 1142.81 256.91 1181.35 243.94 1229.76C239.15 1247.62 227.69 1261.85 211.66 1269.82C196.47 1277.37 178.17 1278.87 160.13 1274.03C142.08 1269.2 126.98 1258.75 117.61 1244.62C107.71 1229.7 104.9 1211.65 109.68 1193.78C115.63 1171.58 132.42 1158.4 149.38 1150.6C154.98 1156.82 160.56 1161.97 165.25 1165.91C150.18 1171.31 133.92 1181.17 129.14 1199C122.49 1223.8 137.72 1247.18 165.34 1254.58C192.96 1261.98 217.83 1249.35 224.48 1224.54C233.65 1190.32 189.29 1158.86 187.84 1157.84C184.38 1155.53 129.93 1118.22 143.05 1069.26C147.84 1051.4 159.3 1037.17 175.33 1029.2C190.51 1021.65 208.81 1020.15 226.86 1024.99C244.9 1029.82 260 1040.27 269.38 1054.4Z" />
	</g>
	<g id="Layer" style="opacity: 0.4">
		<path id="Layer" class="shp12" d="M269.38 1492.4C279.27 1507.32 282.09 1525.37 277.3 1543.23C271.4 1565.26 254.27 1578.44 237.08 1586.29C231.48 1580.06 225.91 1574.88 221.32 1570.96C236.57 1565.48 253.13 1555.59 257.84 1538.02C264.49 1513.22 249.27 1489.84 221.64 1482.44C194.02 1475.04 169.15 1487.67 162.51 1512.47C153 1547.93 198.6 1578.81 199.05 1579.11L199.18 1579.2C201.54 1580.81 256.91 1619.35 243.94 1667.76C239.15 1685.62 227.69 1699.85 211.66 1707.82C196.47 1715.37 178.17 1716.87 160.13 1712.03C142.08 1707.2 126.98 1696.75 117.61 1682.62C107.71 1667.7 104.9 1649.65 109.68 1631.78C115.63 1609.58 132.42 1596.4 149.38 1588.6C154.98 1594.82 160.56 1599.97 165.25 1603.91C150.18 1609.31 133.92 1619.17 129.14 1637C122.49 1661.8 137.72 1685.18 165.34 1692.58C192.96 1699.98 217.83 1687.35 224.48 1662.54C233.65 1628.32 189.29 1596.86 187.84 1595.84C184.38 1593.53 129.93 1556.22 143.05 1507.26C147.84 1489.4 159.3 1475.17 175.33 1467.2C190.51 1459.65 208.81 1458.15 226.86 1462.99C244.9 1467.82 260 1478.27 269.38 1492.4Z" />
	</g>
	<g id="Layer" style="opacity: 0.4">
		<path id="Layer" class="shp12" d="M269.38 1930.4C279.27 1945.32 282.09 1963.37 277.3 1981.23C271.4 2003.26 254.27 2016.44 237.08 2024.29C231.48 2018.06 225.91 2012.88 221.32 2008.96C236.57 2003.48 253.13 1993.59 257.84 1976.02C264.49 1951.22 249.27 1927.84 221.64 1920.44C194.02 1913.04 169.15 1925.67 162.51 1950.47C153 1985.93 198.6 2016.81 199.05 2017.11L199.18 2017.2C201.54 2018.81 256.91 2057.35 243.94 2105.76C239.15 2123.62 227.69 2137.85 211.66 2145.82C196.47 2153.37 178.17 2154.87 160.13 2150.03C142.08 2145.2 126.98 2134.75 117.61 2120.62C107.71 2105.7 104.9 2087.65 109.68 2069.78C115.63 2047.58 132.42 2034.4 149.38 2026.6C154.98 2032.82 160.56 2037.97 165.25 2041.91C150.18 2047.31 133.92 2057.17 129.14 2075C122.49 2099.8 137.72 2123.18 165.34 2130.58C192.96 2137.98 217.83 2125.35 224.48 2100.54C233.65 2066.32 189.29 2034.86 187.84 2033.84C184.38 2031.53 129.93 1994.22 143.05 1945.26C147.84 1927.4 159.3 1913.17 175.33 1905.2C190.51 1897.65 208.81 1896.15 226.86 1900.99C244.9 1905.82 260 1916.27 269.38 1930.4Z" />
	</g>
</svg>